<?xml version="1.0" standalone="no"?>
<!DOCTYPE svg PUBLIC "-//W3C//DTD SVG 20010904//EN"
 "http://www.w3.org/TR/2001/REC-SVG-20010904/DTD/svg10.dtd">
<svg version="1.0" xmlns="http://www.w3.org/2000/svg"
 width="500.000000pt" height="500.000000pt" viewBox="0 0 500.000000 500.000000"
 preserveAspectRatio="xMidYMid meet">

<g transform="translate(0.000000,500.000000) scale(0.100000,-0.100000)"
fill="#000000" stroke="none">
<path d="M3020 4745 l0 -255 28 -7 c32 -9 226 -8 242 2 12 7 14 164 2 183 -5
7 -22 15 -38 18 -39 7 -65 35 -66 71 -1 39 30 82 60 83 21 0 22 4 22 80 l0 80
-125 0 -125 0 0 -255z"/>
<path d="M2675 4450 c-4 -7 49 -10 152 -9 116 1 145 4 108 9 -74 12 -253 12
-260 0z"/>
<path d="M3019 4391 c-5 -29 5 -97 16 -107 9 -10 43 -11 139 -7 119 6 126 7
126 27 0 12 3 38 6 59 l7 37 -147 -1 c-80 -2 -146 -5 -147 -8z"/>
<path d="M2611 4154 c0 -11 3 -14 6 -6 3 7 2 16 -1 19 -3 4 -6 -2 -5 -13z"/>
<path d="M3058 3932 c-16 -2 -29 -6 -29 -10 -4 -19 -4 -3846 -1 -3881 l4 -41
129 0 c116 0 129 2 129 18 1 9 3 895 5 1968 l5 1951 -108 -1 c-59 0 -119 -2
-134 -4z"/>
</g>
</svg>
